<svg width="28" height="28" viewBox="0 0 28 28" fill="none" xmlns="http://www.w3.org/2000/svg">
<path d="M17.8229 0.649952L25.7969 5.39135C26.7177 5.93147 27.283 6.92453 27.2847 7.99964V16.5629C27.2847 17.0923 27.1472 17.6124 26.8858 18.0713C26.6244 18.5302 26.2483 18.9118 25.7952 19.178L12.6723 26.9054L12.6689 26.9071C12.2127 27.1741 11.6948 27.3147 11.1676 27.3147C10.6403 27.3147 10.1224 27.1741 9.66621 26.9071L1.68042 22.2033C1.23017 21.9378 0.856764 21.5577 0.597475 21.1009C0.338185 20.6442 0.202085 20.1267 0.202761 19.6002V10.9942C0.202761 10.4746 0.334786 9.97209 0.575138 9.53282L0.581908 9.52427L0.598835 9.4918C0.852728 9.04398 1.22341 8.66111 1.68211 8.39276L14.8287 0.648243C15.2821 0.38127 15.7976 0.240601 16.3224 0.240601C16.8473 0.240601 17.3628 0.38127 17.8162 0.648243L17.8196 0.649952H17.8229ZM16.1083 2.86169L3.97223 10.0097L10.9391 14.0913C11.0083 14.1315 11.0868 14.1527 11.1667 14.1527C11.2466 14.1527 11.3251 14.1315 11.3944 14.0913L23.5 7.00145L16.5349 2.86169C16.47 2.82389 16.3965 2.80399 16.3216 2.80399C16.2467 2.80399 16.1732 2.82389 16.1083 2.86169ZM2.96004 19.9882L9.89979 24.0784V16.433C9.82021 16.3954 9.74228 16.3543 9.66621 16.3099L2.74169 12.2539V19.6002C2.74169 19.7626 2.82632 19.9095 2.96004 19.9882ZM17.5166 21.0855L20.0911 19.5694V11.9633L17.5166 13.4709V21.0855ZM12.6689 16.3099H12.6706C12.5961 16.3544 12.5183 16.3937 12.4404 16.4313V24.0749L14.9793 22.5794V14.9562L12.6689 16.3099ZM22.63 18.0738L24.5173 16.9628H24.5206C24.5894 16.9226 24.6464 16.8647 24.6859 16.7951C24.7254 16.7255 24.7461 16.6465 24.7458 16.5663V9.23712L22.63 10.4763V18.0738Z" fill="#F9995D"/>
</svg>
