<svg width="25" height="24" viewBox="0 0 25 24" fill="none" xmlns="http://www.w3.org/2000/svg">
<path d="M23.9963 16.7801L21.611 15.5518L23.8611 14.3977C24.3447 14.146 23.3268 12.5918 22.8465 12.8435L19.5785 14.5157L14.4419 11.8826L19.5785 9.24942L22.8465 10.9187C23.3301 11.1704 24.348 9.60259 23.8611 9.36454L21.6099 8.21041L23.9952 6.98212C24.4788 6.73042 23.4609 5.17628 22.9806 5.42799L20.5953 6.65627V4.34702C20.5953 3.84361 18.5607 3.84361 18.5607 4.34702V7.707L13.424 10.3401V5.07482L16.692 3.40264C17.1756 3.15093 16.1578 1.5968 15.6774 1.8485L13.4394 2.98703V0.5451C13.4394 0.0416888 11.4048 0.0416888 11.4048 0.5451V2.98703L9.15357 1.83192C8.66992 1.58021 7.65205 3.14801 8.139 3.38605L11.407 5.05824V10.3128L6.27033 7.67968V4.348C6.27033 3.84459 4.23569 3.84459 4.23569 4.348V6.65627L1.84599 5.42799C1.36234 5.17628 0.344468 6.74408 0.83142 6.98212L3.21672 8.21041L0.965524 9.36454C0.48187 9.61625 1.49974 11.1704 1.9801 10.9187L5.24806 9.2465L10.3847 11.8962L5.24806 14.5294L1.9801 12.8572C1.49644 12.6055 0.478572 14.1733 0.965524 14.4113L3.21672 15.5655L0.83142 16.7967C0.347765 17.0484 1.36564 18.6025 1.84599 18.3508L4.23129 17.1225V19.4318C4.23129 19.9352 6.26594 19.9352 6.26594 19.4318V16.0689L11.4026 13.4357V18.6903L8.1368 20.3645C7.65315 20.6162 8.67102 22.1703 9.15137 21.9186L11.4026 20.7645V23.2054C11.4026 23.7088 13.4372 23.7088 13.4372 23.2054V20.7635L15.6884 21.9176C16.1721 22.1693 17.1899 20.6015 16.703 20.3635L13.435 18.6913V13.4523L18.5716 16.0855V19.4454C18.5716 19.9489 20.6063 19.9489 20.6063 19.4454V17.1381L22.9916 18.3664C23.4796 18.5879 24.4799 17.0338 23.9963 16.783V16.7801Z" fill="#F9995D"/>
</svg>
