<svg width="24" height="25" viewBox="0 0 24 25" fill="none" xmlns="http://www.w3.org/2000/svg">
<path d="M23.9639 19.0462L17.1954 12.2777L19.1101 10.363L14.5368 5.78968L12.6221 7.70437L5.85354 0.935852L0.0850525 6.70434L6.85358 13.4729L1.0485 19.2779V23.8513H5.62183L11.4269 18.0462L18.1954 24.8147L23.9639 19.0462V19.0462ZM8.58534 11.7411L3.53639 6.70434L5.85354 4.38719L7.40237 5.93602L5.95111 7.38729L7.67068 9.10686L9.12194 7.65559L10.8903 9.42395L8.58534 11.7411V11.7411ZM13.1587 16.3144L15.4758 13.9973L17.2442 15.7656L15.7929 17.2169L17.5125 18.9365L18.9637 17.4852L20.5126 19.034L18.1954 21.3512L13.1587 16.3144V16.3144ZM15.8453 4.48841L18.9406 1.39197L23.5115 5.96285L20.4162 9.0593L15.8453 4.48841Z" fill="#F9995D"/>
</svg>
